PathFileType	4	(X/Y/Z)	DARI_DATA/Captury_Subj4_bilateral_squat01.trc
DataRate	CameraRate	NumFrames	NumMarkers	Units	OrigDataRate	OrigDataStartFrame	OrigNumFrames
60	60	4	47	mm	60.00239944458008	29	226
Frame#	Time		LeftUpLeg_		RightUpLeg_		LeftLeg_		RightLeg_		LeftFoot_		RightFoot_		LeftToeBase_		RightToeBase_		Knee_Lateral_r		Knee_Lateral_l		Ankle_Lateral_r		Ankle_Lateral_l		LeftArm_		LeftForeArm_		LeftHand_		LeftHandEE		RightArm_		RightForeArm_		RightHand_		RightHandEE		Spine_		Spine1_		Spine2_		Spine3_		Spine4_		Spine5_		Spine_x		Spine_y		Spine_z		RASI		LASI		RIPS		LIPS		RTHI		LTHI		RTIB		LTIB		RTOE		LTOE		RHEE		LHEE		RHipAngles		LHipAngles		RKneeAngles		LKneeAngles		RAnkleAngles		LAnkleAngles
			X1	Y1	Z1	X2	Y2	Z2	X3	Y3	Z3	X4	Y4	Z4	X5	Y5	Z5	X6	Y6	Z6	X7	Y7	Z7	X8	Y8	Z8	X9	Y9	Z9	X10	Y10	Z10	X11	Y11	Z11	X12	Y12	Z12	X13	Y13	Z13	X14	Y14	Z14	X15	Y15	Z15	X16	Y16	Z16	X17	Y17	Z17	X18	Y18	Z18	X19	Y19	Z19	X20	Y20	Z20	X21	Y21	Z21	X22	Y22	Z22	X23	Y23	Z23	X24	Y24	Z24	X25	Y25	Z25	X26	Y26	Z26	X27	Y27	Z27	X28	Y28	Z28	X29	Y29	Z29	X30	Y30	Z30	X31	Y31	Z31	X32	Y32	Z32	X33	Y33	Z33	X34	Y34	Z34	X35	Y35	Z35	X36	Y36	Z36	X37	Y37	Z37	X38	Y38	Z38	X39	Y39	Z39	X40	Y40	Z40	X41	Y41	Z41	X42	Y42	Z42	X43	Y43	Z43	X44	Y44	Z44	X45	Y45	Z45	X46	Y46	Z46	X47	Y47	Z47

29	0.46667	-108.83121	858.26031	41.53173	58.58292	860.05676	48.35979	-146.55264	453.36346	29.70967	94.00282	455.03125	34.08182	-182.69952	80.65891	57.50538	123.60999	81.52399	58.65111	-191.94160	26.90599	-61.61008	140.22844	31.22279	-61.16918	140.26163	456.46783	40.28278	-193.20239	455.29898	30.37898	167.38159	83.74422	83.31635	-229.02792	84.03801	76.78016	-162.07712	1356.27979	79.23880	-246.90868	1308.45691	-192.43457	-208.53125	1317.39917	-423.99323	-194.94426	1324.94458	-508.29486	102.99110	1348.92566	89.92390	167.79962	1296.48889	-186.37323	149.60144	1306.58130	-420.33728	155.94417	1314.10693	-505.49268	-27.25433	948.45831	73.67970	-27.85173	1049.13257	68.86690	-28.94048	1120.45325	88.73416	-30.82908	1203.50781	131.96754	-30.80909	1339.00171	142.35062	-28923081178180147754616411384381964288.00000	0.00000	-28923121742999355057957259278884536320.00000	19.70352	948.96222	75.59489	-27.97108	995.15399	78.96742	-29.10045	943.14606	120.34160	118.47998	934.70197	-35.73592	-163.26715	931.67859	-47.22710	9.63433	917.65668	100.03636	-65.49825	916.85046	96.97205	139.57932	674.55005	53.37631	-191.78912	673.56116	39.93941	146.44604	288.64276	35.77522	-202.99701	231.49368	27.59423	146.75175	24.85562	-134.46382	-192.54280	15.08776	-134.51529	129.20555	18.69257	108.39914	-198.64276	20.69192	108.53222	4.77545	1.30913	5.22706	5.60826	3.03724	3.09256	0.02663	0.12442	-0.04613	-0.10570	0.11976	-0.02744	3.88115	-2.95342	6.69280	4.87702	-1.69839	11.13904
30	0.48333	-108.37398	858.12323	41.59793	59.04831	860.14197	48.15873	-146.54807	453.27216	29.66099	94.09775	455.08142	33.95958	-183.05115	80.59564	57.36810	123.51292	81.56863	58.67480	-192.51079	26.63058	-61.63433	139.84213	31.05369	-61.09532	140.37851	456.48422	40.00245	-193.19473	455.25766	30.39538	167.36844	83.79529	83.18993	-229.34552	84.06548	76.70841	-162.01736	1355.97620	78.88509	-246.94724	1308.28357	-192.78050	-208.80733	1317.37354	-424.37262	-194.90962	1324.72217	-508.64099	102.94218	1348.99463	90.35739	167.61423	1296.56909	-185.97382	149.66870	1306.53479	-419.96277	156.47247	1314.28870	-505.06207	-26.86125	948.47003	73.48986	-27.59368	1049.13647	68.61623	-28.74197	1120.45435	88.47538	-30.67743	1203.48743	131.73976	-30.78508	1338.96997	142.21432	-28923081178180147754616411384381964288.00000	0.00000	-28923121742999355057957259278884536320.00000	20.09889	949.03625	75.33009	-27.62906	995.17218	78.71297	-28.62691	943.22125	120.16206	118.71741	934.74457	-36.13659	-163.04340	931.34711	-47.17799	10.10814	917.75244	99.83150	-65.02807	916.84650	96.88712	139.91394	674.57336	52.99096	-191.53302	673.51422	40.04379	146.42403	288.65546	35.58572	-203.23175	231.46338	27.54400	146.12144	24.59608	-134.40335	-193.09282	14.74801	-134.52924	129.43419	18.85702	108.53616	-199.40517	20.84219	108.51529	4.73769	1.18521	5.12753	5.50199	3.17587	3.07775	0.01755	0.12904	-0.04482	-0.10776	0.11912	-0.02250	3.95036	-2.95249	6.88534	5.02715	-1.81851	11.43820
31	0.50000	-108.65432	858.34705	41.53614	58.77164	860.29266	48.02391	-146.88016	453.49927	29.65351	93.94463	455.23984	33.90882	-183.03992	80.77884	57.21914	123.64816	81.74857	58.60483	-192.45389	26.65625	-61.71532	139.95375	31.10554	-61.11440	140.23656	456.66217	39.86086	-193.52583	455.48932	30.43662	167.55504	84.02865	83.02289	-229.31741	84.23586	76.60204	-161.59160	1355.80859	78.43705	-246.84090	1308.03625	-193.11444	-209.05161	1317.42212	-424.75223	-194.79016	1324.46216	-508.98615	103.18398	1348.84143	90.60967	167.73114	1296.48584	-185.76404	149.99998	1306.46936	-419.76862	156.91920	1314.49878	-504.83307	-27.08638	948.67542	73.33888	-27.75803	1049.31177	68.44675	-28.83488	1120.59814	88.31123	-30.66306	1203.58569	131.60532	-30.56905	1339.03247	142.15668	-28923081178180147754616411384381964288.00000	0.00000	-28923121742999355057957259278884536320.00000	19.87478	949.22113	75.15863	-27.83046	995.38104	78.53430	-28.83442	943.45544	120.01497	118.43886	934.81720	-36.34174	-163.32814	931.54285	-47.26022	9.88018	917.95660	99.68308	-65.25769	917.08350	96.77148	139.71585	674.75604	52.76818	-191.83286	673.74609	40.07554	146.37878	288.84692	35.44079	-203.37703	231.64334	27.48531	146.12196	24.59647	-134.42731	-192.94316	14.74376	-134.60600	129.88934	19.13802	108.55411	-199.59001	21.13679	108.43323	4.71802	1.23004	5.03975	5.46948	3.15687	3.11278	0.03432	0.14122	-0.05801	-0.07936	0.06427	-0.02644	4.02075	-2.92340	7.06997	5.13712	-1.93991	11.62043
32	0.51667	-108.68595	858.65198	41.32642	58.74286	860.53296	47.76067	-146.84482	453.78912	29.74303	93.91385	455.47223	33.86764	-183.08994	81.05768	57.04784	123.50144	81.97394	58.59852	-192.33029	26.93885	-61.90198	139.73869	31.19204	-61.07121	140.21651	456.90143	39.73404	-193.49074	455.77185	30.53074	167.46249	84.25959	82.91843	-229.36620	84.52509	76.43188	-161.39272	1355.73376	78.15736	-246.60043	1307.75488	-193.37077	-209.02768	1317.40308	-425.03302	-195.05661	1324.51233	-509.30981	103.28310	1348.92859	90.76575	167.82524	1296.65393	-185.62442	150.36617	1306.30713	-419.66327	157.45799	1314.59656	-504.68854	-27.07223	948.95551	73.08244	-27.70995	1049.55603	68.19660	-28.76065	1120.79993	88.07814	-30.55971	1203.72900	131.40941	-30.43735	1339.13245	142.04279	-28923081178180147754616411384381964288.00000	0.00000	-28923121742999355057957259278884536320.00000	19.88974	949.48309	74.88718	-27.79621	995.66266	78.26730	-28.80754	943.74701	119.76028	118.41278	935.01440	-36.64111	-163.35901	931.84888	-47.46954	9.89054	918.22821	99.42202	-65.24860	917.38403	96.53444	139.70656	675.00433	52.48812	-191.83344	674.03589	40.01079	146.27542	289.05579	35.32888	-203.39240	231.94763	27.41939	145.80101	24.62049	-134.38741	-192.65613	15.12135	-134.80905	129.97350	19.45315	108.63081	-199.83698	21.44444	108.23148	4.74112	1.25466	4.95272	5.49858	3.12326	3.10293	0.05621	0.10819	-0.07773	0.00298	0.08562	-0.03097	4.07934	-2.88380	7.24073	5.17830	-2.05629	11.70172
